<?xml version="1.0" encoding="utf-8"?>
<!-- Generator: Adobe Illustrator 21.0.0, SVG Export Plug-In . SVG Version: 6.00 Build 0)  -->
<svg version="1.1" id="Layer_1" xmlns="http://www.w3.org/2000/svg" xmlns:xlink="http://www.w3.org/1999/xlink" x="0px" y="0px"
	 viewBox="0 0 20 20" style="enable-background:new 0 0 20 20;" xml:space="preserve">
<style type="text/css">
	.st0{fill:#0C3CB4;}
</style>
<path class="st0" d="M4.5,18.3L4.5,18.3c-0.9-0.6-1.2-1.9-0.6-2.8l8.6-13.4c0.6-0.9,1.9-1.2,2.8-0.6l0,0c0.9,0.6,1.2,1.9,0.6,2.8
	L7.3,17.7C6.7,18.7,5.4,18.9,4.5,18.3z"/>
<path class="st0" d="M14.7,18.4L14.7,18.4c-0.9-0.6-1.2-1.9-0.6-2.8l8.6-13.4c0.6-0.9,1.9-1.2,2.8-0.6l0,0c0.9,0.6,1.2,1.9,0.6,2.8
	l-8.6,13.4C16.9,18.7,15.6,19,14.7,18.4z"/>
<path class="st0" d="M-5.4,18.5L-5.4,18.5c-0.9-0.6-1.2-1.9-0.6-2.8L2.6,2.3c0.6-0.9,1.9-1.2,2.8-0.6l0,0C6.3,2.3,6.6,3.6,6,4.5
	l-8.6,13.4C-3.2,18.8-4.4,19.1-5.4,18.5z"/>
</svg>
